<svg xmlns="http://www.w3.org/2000/svg" version="1.1" xmlns:xlink="http://www.w3.org/1999/xlink" xmlns:svgjs="http://svgjs.dev/svgjs" width="1500" height="1978" viewBox="0 0 1500 1978"><g transform="matrix(1,0,0,1,-3.7706842970613934,-3.1903225806452156)"><svg viewBox="0 0 188 248" data-background-color="#b5c3f4" preserveAspectRatio="xMidYMid meet" height="1978" width="1500" xmlns="http://www.w3.org/2000/svg" xmlns:xlink="http://www.w3.org/1999/xlink"><g id="tight-bounds" transform="matrix(1,0,0,1,0.472592431898363,0.4000000000000057)"><svg viewBox="0 0 187.05463996515277 247.2" height="247.2" width="187.05463996515277"><g><svg viewBox="0 0 458.86157028992545 606.4034562136553" height="247.2" width="187.05463996515277"><g transform="matrix(1,0,0,1,31.670785144962736,492.92759396801375)"><svg viewBox="0 0 395.52 113.47586224564151" height="113.47586224564151" width="395.52"><g id="textblocktransform"><svg viewBox="0 0 395.52 113.47586224564151" height="113.47586224564151" width="395.52" id="textblock"><g><svg viewBox="0 0 395.52 72.15054405803285" height="72.15054405803285" width="395.52"><g transform="matrix(1,0,0,1,0,0)"><svg width="395.52" viewBox="3.98 -41.19 231.03 41.75" height="72.15054405803285" data-palette-color="#ff5a2e"><g class="wordmark-text-0" data-fill-palette-color="primary" id="text-0"><path d="M13.67-15.33L13.67 0 3.98 0 3.98-35.16 29.22-35.16 29.22-30.66 13.67-30.66 13.67-19.8 25.68-19.8 25.68-15.33 13.67-15.33ZM41.99-32.62L41.99 0 33.74 0 33.74-41.19 36.91-41.19 41.99-32.62ZM55.66-13.38L55.66-13.38Q57.17-13.04 58.69-12.84 60.2-12.65 61.74-12.65L61.74-12.65Q63.35-12.65 64.73-12.95 66.11-13.26 67.12-13.98 68.13-14.7 68.72-15.89 69.31-17.09 69.31-18.87L69.31-18.87Q69.31-20.31 68.92-21.51 68.53-22.71 67.76-23.56 66.99-24.41 65.86-24.89 64.74-25.37 63.25-25.37L63.25-25.37Q61.86-25.37 60.75-24.85 59.64-24.34 58.8-23.47 57.95-22.61 57.36-21.46 56.76-20.31 56.37-19.07 55.98-17.82 55.81-16.55 55.63-15.28 55.63-14.16L55.63-14.16Q55.63-13.96 55.63-13.77 55.63-13.57 55.66-13.38ZM76-18.95L76-18.95Q76-17.21 75.43-15.86 74.87-14.5 73.91-13.48 72.94-12.45 71.67-11.74 70.41-11.04 68.96-10.58 67.52-10.13 66-9.94 64.47-9.74 63.03-9.74L63.03-9.74Q61.2-9.74 59.42-10 57.64-10.25 55.9-10.82L55.9-10.82Q56.17-9.2 56.76-7.75 57.34-6.3 58.32-5.21 59.3-4.13 60.72-3.49 62.15-2.86 64.11-2.86L64.11-2.86Q65.4-2.86 66.57-3.25 67.74-3.64 68.72-4.35 69.7-5.05 70.44-6.03 71.19-7.01 71.65-8.2L71.65-8.2 75.21-6.88Q74.41-4.96 73.01-3.55 71.6-2.15 69.83-1.23 68.06-0.32 66.07 0.12 64.08 0.56 62.13 0.56L62.13 0.56Q58.91 0.56 56.17-0.52 53.44-1.61 51.46-3.56 49.48-5.52 48.36-8.23 47.24-10.94 47.24-14.16L47.24-14.16Q47.24-17.38 48.36-20.09 49.48-22.8 51.46-24.76 53.44-26.71 56.17-27.8 58.91-28.88 62.13-28.88L62.13-28.88Q63.69-28.88 65.33-28.66 66.96-28.44 68.5-27.97 70.04-27.49 71.41-26.73 72.77-25.98 73.79-24.87 74.8-23.75 75.4-22.29 76-20.83 76-18.95ZM95.23-15.55L106.07 0 97.82 0 90.91-9.89 83.85 0 78.14 0 88.76-12.99 78.14-28.2 86.39-28.2 93.08-18.63 100.36-28.2 106.07-28.2 95.23-15.55ZM118.54-35.01L118.54-35.01Q118.54-34.08 118.19-33.25 117.84-32.42 117.23-31.81 116.62-31.2 115.79-30.85 114.96-30.49 114.03-30.49L114.03-30.49Q113.1-30.49 112.28-30.85 111.46-31.2 110.85-31.81 110.24-32.42 109.89-33.25 109.54-34.08 109.54-35.01L109.54-35.01Q109.54-35.94 109.89-36.76 110.24-37.57 110.85-38.18 111.46-38.79 112.28-39.15 113.1-39.5 114.03-39.5L114.03-39.5Q114.96-39.5 115.79-39.15 116.62-38.79 117.23-38.18 117.84-37.57 118.19-36.76 118.54-35.94 118.54-35.01ZM118.18-28.17L118.18 0 109.9 0 109.9-28.17 118.18-28.17ZM135.31-15.33L135.31 0 125.62 0 125.62-35.16 135.31-35.16 135.31-19.8 148.16-19.8 148.16-35.16 157.85-35.16 157.85 0 148.16 0 148.16-15.33 135.31-15.33ZM173.94-35.01L173.94-35.01Q173.94-34.08 173.58-33.25 173.23-32.42 172.62-31.81 172.01-31.2 171.18-30.85 170.35-30.49 169.42-30.49L169.42-30.49Q168.49-30.49 167.67-30.85 166.86-31.2 166.24-31.81 165.63-32.42 165.28-33.25 164.93-34.08 164.93-35.01L164.93-35.01Q164.93-35.94 165.28-36.76 165.63-37.57 166.24-38.18 166.86-38.79 167.67-39.15 168.49-39.5 169.42-39.5L169.42-39.5Q170.35-39.5 171.18-39.15 172.01-38.79 172.62-38.18 173.23-37.57 173.58-36.76 173.94-35.94 173.94-35.01ZM173.57-28.17L173.57 0 165.29 0 165.29-28.17 173.57-28.17ZM204.45-25.71L204.45-25.71 199.81-18.02Q199.52-18.99 199.05-20.21 198.59-21.44 197.91-22.5 197.22-23.56 196.27-24.28 195.32-25 194.07-25L194.07-25Q192.93-25 192.08-24.41 191.24-23.83 190.66-22.89 190.07-21.95 189.69-20.76 189.31-19.58 189.11-18.37 188.9-17.16 188.83-16.05 188.75-14.94 188.75-14.14L188.75-14.14 188.75 0 180.48 0 180.48-28.2 183.65-28.2 186.99-21.63Q187.68-23.22 188.56-24.55 189.44-25.88 190.58-26.84 191.73-27.81 193.18-28.34 194.64-28.88 196.47-28.88L196.47-28.88Q197.42-28.88 198.59-28.72 199.76-28.56 200.89-28.19 202.01-27.81 202.96-27.2 203.91-26.59 204.45-25.71ZM214.68-13.38L214.68-13.38Q216.19-13.04 217.7-12.84 219.22-12.65 220.76-12.65L220.76-12.65Q222.37-12.65 223.75-12.95 225.13-13.26 226.14-13.98 227.15-14.7 227.74-15.89 228.32-17.09 228.32-18.87L228.32-18.87Q228.32-20.31 227.93-21.51 227.54-22.71 226.77-23.56 226.01-24.41 224.88-24.89 223.76-25.37 222.27-25.37L222.27-25.37Q220.88-25.37 219.77-24.85 218.66-24.34 217.81-23.47 216.97-22.61 216.37-21.46 215.78-20.31 215.39-19.07 214.99-17.82 214.82-16.55 214.65-15.28 214.65-14.16L214.65-14.16Q214.65-13.96 214.65-13.77 214.65-13.57 214.68-13.38ZM235.01-18.95L235.01-18.95Q235.01-17.21 234.45-15.86 233.89-14.5 232.93-13.48 231.96-12.45 230.69-11.74 229.42-11.04 227.98-10.58 226.54-10.13 225.02-9.94 223.49-9.74 222.05-9.74L222.05-9.74Q220.22-9.74 218.44-10 216.65-10.25 214.92-10.82L214.92-10.82Q215.19-9.2 215.78-7.75 216.36-6.3 217.34-5.21 218.31-4.13 219.74-3.49 221.17-2.86 223.12-2.86L223.12-2.86Q224.42-2.86 225.59-3.25 226.76-3.64 227.74-4.35 228.72-5.05 229.46-6.03 230.2-7.01 230.67-8.2L230.67-8.2 234.23-6.88Q233.43-4.96 232.02-3.55 230.62-2.15 228.85-1.23 227.08-0.32 225.09 0.12 223.1 0.56 221.15 0.56L221.15 0.56Q217.92 0.56 215.19-0.52 212.46-1.61 210.48-3.56 208.5-5.52 207.38-8.23 206.25-10.94 206.25-14.16L206.25-14.16Q206.25-17.38 207.38-20.09 208.5-22.8 210.48-24.76 212.46-26.71 215.19-27.8 217.92-28.88 221.15-28.88L221.15-28.88Q222.71-28.88 224.35-28.66 225.98-28.44 227.52-27.97 229.06-27.49 230.42-26.73 231.79-25.98 232.8-24.87 233.82-23.75 234.42-22.29 235.01-20.83 235.01-18.95Z" fill="#ff5a2e" data-fill-palette-color="primary"></path></g></svg></g></svg></g><g transform="matrix(1,0,0,1,11.865600000000029,89.18355589707701)"><svg viewBox="0 0 371.7887999999999 24.292306348564495" height="24.292306348564495" width="371.7887999999999"><g transform="matrix(1,0,0,1,0,0)"><svg width="371.7887999999999" viewBox="-0.49 -35.3 724.4300000000001 47.339999999999996" height="24.292306348564495" data-palette-color="#ff5a2e"><path d="M9.47 0L9.47-12.45-0.49-33.15 5.47-33.15 10.77-20.75 12.18-16.46 13.6-20.73 18.97-33.15 24.93-33.15 15.01-12.45 15.01 0 9.47 0ZM26.29-12.48L26.29-12.48Q26.29-15.7 27.16-18.16 28.02-20.63 29.6-22.29 31.17-23.95 33.36-24.8 35.54-25.66 38.18-25.66L38.18-25.66Q40.89-25.66 43.06-24.87 45.24-24.07 46.75-22.46 48.26-20.85 49.07-18.44 49.88-16.04 49.88-12.82L49.88-12.82Q49.88-9.59 49.06-7.1 48.24-4.61 46.71-2.93 45.19-1.25 43.03-0.38 40.87 0.49 38.18 0.49L38.18 0.49Q35.4 0.49 33.19-0.33 30.98-1.15 29.45-2.77 27.93-4.39 27.11-6.82 26.29-9.25 26.29-12.48ZM38.18-3.54L38.18-3.54Q39.79-3.54 40.98-4.24 42.16-4.93 42.92-6.16 43.67-7.4 44.04-9.09 44.41-10.79 44.41-12.82L44.41-12.82Q44.41-17.19 42.92-19.48 41.43-21.78 38.18-21.78L38.18-21.78Q36.55-21.78 35.34-21.08 34.13-20.39 33.33-19.14 32.54-17.9 32.15-16.19 31.76-14.48 31.76-12.48L31.76-12.48Q31.76-8.06 33.33-5.8 34.91-3.54 38.18-3.54ZM54.46-8.18L54.46-24.95 59.69-24.95 59.69-8.64Q59.69-6.03 60.71-4.77 61.74-3.52 64.16-3.52L64.16-3.52Q65.33-3.52 66.28-3.71 67.23-3.91 67.94-4.17L67.94-4.17Q68.75-4.47 69.38-4.86L69.38-4.86 69.38-24.95 74.63-24.95 74.63-4.03 76.8-1.54 76.8 0 72.09 0 70.16-1.93 69.23-1.93Q69.04-1.78 68.5-1.39 67.96-1 67.12-0.57 66.28-0.15 65.18 0.17 64.08 0.49 62.79 0.49L62.79 0.49Q60.74 0.49 59.17-0.12 57.61-0.73 56.56-1.87 55.51-3 54.99-4.6 54.46-6.2 54.46-8.18L54.46-8.18ZM80.44-25.22L84.93-25.22 87.44-22.58Q87.71-23.19 88.14-23.74 88.57-24.29 89.14-24.71 89.71-25.12 90.43-25.37 91.15-25.61 92.01-25.61L92.01-25.61Q92.72-25.61 93.38-25.5 94.04-25.39 94.82-25.12L94.82-25.12Q94.84-25.07 94.88-24.73 94.91-24.39 94.91-23.88L94.91-23.88Q94.91-23.49 94.87-22.96 94.82-22.44 94.71-21.89 94.6-21.34 94.39-20.8 94.18-20.26 93.86-19.87L93.86-19.87 93.4-19.75Q92.91-20 92.31-20.17 91.72-20.34 91.08-20.34L91.08-20.34Q90.1-20.34 89.45-20.2 88.79-20.07 88.37-19.92L88.37-19.92Q87.88-19.75 87.59-19.53L87.59-19.53 87.59 0 82.37 0 82.37-20.48 80.44-22.46 80.44-25.22ZM125.45 0.63L125.45 0.63Q121.79 0.63 119.16-0.55 116.54-1.73 114.87-3.97 113.2-6.2 112.41-9.39 111.63-12.57 111.63-16.58L111.63-16.58Q111.63-20.58 112.45-23.78 113.27-26.98 114.97-29.2 116.66-31.42 119.27-32.6 121.89-33.79 125.45-33.79L125.45-33.79Q129.19-33.79 131.77-32.68 134.36-31.57 135.99-29.42 137.61-27.27 138.34-24.16 139.07-21.04 139.07-17.04L139.07-17.04Q139.07-13.01 138.29-9.75 137.51-6.49 135.85-4.19 134.19-1.88 131.62-0.62 129.04 0.63 125.45 0.63ZM125.45-3.64L125.45-3.64Q127.77-3.64 129.32-4.61 130.87-5.59 131.81-7.36 132.75-9.13 133.15-11.6 133.56-14.06 133.56-17.04L133.56-17.04Q133.56-20.24 133.15-22.6 132.75-24.95 131.81-26.5 130.87-28.05 129.32-28.81 127.77-29.57 125.45-29.57L125.45-29.57Q123.13-29.57 121.53-28.7 119.93-27.83 118.96-26.16 117.98-24.49 117.55-22.07 117.13-19.65 117.13-16.58L117.13-16.58Q117.13-13.5 117.55-11.08 117.98-8.67 118.96-7.02 119.93-5.37 121.53-4.5 123.13-3.64 125.45-3.64ZM144.81 0L144.81-20.48 142.88-22.46 142.88-25.22 147.37-25.22 149.47-23.32 150.18-23.46Q150.35-23.61 150.97-23.97 151.6-24.34 152.51-24.71 153.43-25.07 154.6-25.35 155.77-25.63 157.07-25.63L157.07-25.63Q159.12-25.63 160.71-25.02 162.31-24.41 163.41-23.28 164.51-22.14 165.07-20.56 165.63-18.97 165.63-16.99L165.63-16.99 165.63 0 160.39 0 160.39-16.48Q160.39-19.14 159.27-20.4 158.16-21.66 155.75-21.66L155.75-21.66Q154.55-21.66 153.53-21.45 152.5-21.24 151.72-20.97L151.72-20.97Q150.82-20.68 150.03-20.29L150.03-20.29 150.03 0 144.81 0ZM171-12.23L171-12.23Q171-15.75 171.86-18.29 172.71-20.83 174.25-22.46 175.79-24.1 177.92-24.87 180.06-25.63 182.62-25.63L182.62-25.63Q184.99-25.63 186.86-24.84 188.73-24.05 190.02-22.61 191.32-21.17 192-19.17 192.68-17.16 192.68-14.75L192.68-14.75Q192.68-13.92 192.61-13.21 192.54-12.5 192.44-11.99L192.44-11.99Q192.34-11.38 192.22-10.89L192.22-10.89 176.2-10.96Q176.23-8.79 176.67-7.36 177.11-5.93 177.97-5.1 178.84-4.27 180.16-3.94 181.48-3.61 183.28-3.61L183.28-3.61Q184.82-3.61 186.04-3.81 187.26-4 188.12-4.27L188.12-4.27Q189.09-4.57 189.88-4.96L189.88-4.96Q190.24-4.1 190.45-3.37 190.66-2.64 190.75-2.1L190.75-2.1Q190.85-1.46 190.9-0.98L190.9-0.98Q190.09-0.56 188.95-0.24L188.95-0.24Q187.97 0.02 186.55 0.26 185.14 0.49 183.28 0.49L183.28 0.49Q180.35 0.49 178.07-0.17 175.79-0.83 174.21-2.33 172.64-3.83 171.82-6.26 171-8.69 171-12.23ZM176.28-14.53L187.46-14.53 187.46-15.36Q187.46-16.89 187.08-18.08 186.7-19.26 186.04-20.07 185.38-20.87 184.48-21.29 183.58-21.7 182.53-21.7L182.53-21.7Q180.99-21.7 179.82-21.3 178.64-20.9 177.85-20.03 177.06-19.17 176.67-17.8 176.28-16.43 176.28-14.53L176.28-14.53ZM211.18-1.2L211.18-1.2Q211.23-1.76 211.35-2.47L211.35-2.47Q211.48-3.05 211.68-3.87 211.89-4.69 212.31-5.64L212.31-5.64Q213.62-5.2 214.99-4.86L214.99-4.86Q216.16-4.57 217.56-4.32 218.95-4.08 220.22-4.08L220.22-4.08Q222.15-4.08 223.45-4.37 224.76-4.66 225.55-5.24 226.34-5.81 226.69-6.68 227.03-7.54 227.03-8.69L227.03-8.69Q227.03-9.99 226.67-10.89 226.32-11.79 225.6-12.45 224.88-13.11 223.76-13.57 222.63-14.04 221.1-14.48L221.1-14.48Q218.41-15.21 216.55-16.08 214.7-16.94 213.54-18.07 212.38-19.19 211.87-20.62 211.35-22.05 211.35-23.88L211.35-23.88Q211.35-26.51 212.17-28.39 212.99-30.27 214.49-31.47 215.99-32.67 218.13-33.23 220.27-33.79 222.9-33.79L222.9-33.79Q224.93-33.79 226.45-33.47 227.98-33.15 229.03-32.79L229.03-32.79Q230.25-32.35 231.15-31.79L231.15-31.79Q231.08-31.23 230.86-30.57L230.86-30.57Q230.67-30 230.32-29.25 229.98-28.49 229.37-27.61L229.37-27.61Q228.64-28.1 227.66-28.49L227.66-28.49Q226.81-28.83 225.6-29.11 224.39-29.39 222.8-29.39L222.8-29.39Q221.07-29.39 219.89-29.13 218.7-28.86 217.95-28.28 217.19-27.71 216.86-26.84 216.53-25.98 216.53-24.78L216.53-24.78Q216.53-23.44 216.87-22.55 217.21-21.66 217.97-21.03 218.73-20.41 219.94-19.95 221.14-19.48 222.85-18.99L222.85-18.99Q225.42-18.29 227.22-17.48 229.03-16.67 230.17-15.6 231.3-14.53 231.83-13.05 232.35-11.57 232.35-9.5L232.35-9.5Q232.35-6.93 231.69-5.04 231.03-3.15 229.59-1.88 228.15-0.61 225.88 0.01 223.61 0.63 220.41 0.63L220.41 0.63Q218.51 0.63 216.82 0.35 215.14 0.07 213.89-0.27L213.89-0.27Q212.4-0.68 211.18-1.2ZM239.4-6.98L239.4-21.17 236.21-21.17Q236.18-21.44 236.16-21.75L236.16-21.75Q236.13-22.02 236.12-22.39 236.11-22.75 236.11-23.19L236.11-23.19Q236.11-23.63 236.13-24.01 236.16-24.39 236.21-24.95L236.21-24.95 239.4-24.95 239.4-28.83 242.21-32.01 244.38-32.01 244.38-24.95 251.29-24.95Q251.34-24.71 251.38-24.37 251.42-24.02 251.42-23.71L251.42-23.71Q251.42-23.14 251.31-22.68 251.2-22.22 251.07-21.88L251.07-21.88Q250.93-21.48 250.73-21.17L250.73-21.17 244.38-21.17 244.38-7.01Q244.38-5.22 244.98-4.42 245.58-3.61 246.9-3.61L246.9-3.61Q247.46-3.61 248.08-3.75 248.71-3.88 249.27-4.08L249.27-4.08Q249.9-4.3 250.56-4.57L250.56-4.57Q251.05-3.93 251.33-3.32 251.61-2.71 251.73-2.22L251.73-2.22Q251.88-1.66 251.9-1.17L251.9-1.17Q251.22-0.71 250.37-0.34L250.37-0.34Q249.61-0.02 248.56 0.23 247.51 0.49 246.14 0.49L246.14 0.49Q244.24 0.49 242.96 0.01 241.67-0.46 240.88-1.4 240.09-2.34 239.75-3.75 239.4-5.15 239.4-6.98L239.4-6.98ZM254.95-12.48L254.95-12.48Q254.95-15.7 255.82-18.16 256.69-20.63 258.26-22.29 259.84-23.95 262.02-24.8 264.21-25.66 266.84-25.66L266.84-25.66Q269.55-25.66 271.73-24.87 273.9-24.07 275.41-22.46 276.93-20.85 277.73-18.44 278.54-16.04 278.54-12.82L278.54-12.82Q278.54-9.59 277.72-7.1 276.9-4.61 275.38-2.93 273.85-1.25 271.69-0.38 269.53 0.49 266.84 0.49L266.84 0.49Q264.06 0.49 261.85-0.33 259.64-1.15 258.11-2.77 256.59-4.39 255.77-6.82 254.95-9.25 254.95-12.48ZM266.84-3.54L266.84-3.54Q268.45-3.54 269.64-4.24 270.82-4.93 271.58-6.16 272.34-7.4 272.7-9.09 273.07-10.79 273.07-12.82L273.07-12.82Q273.07-17.19 271.58-19.48 270.09-21.78 266.84-21.78L266.84-21.78Q265.21-21.78 264-21.08 262.79-20.39 262-19.14 261.2-17.9 260.81-16.19 260.42-14.48 260.42-12.48L260.42-12.48Q260.42-8.06 262-5.8 263.57-3.54 266.84-3.54ZM288.86 0.15L288.86 9.89 283.64 9.89 283.64-21.7 281.71-23.68 281.71-25.22 286.18-25.22 288.1-23.54 289.01-23.49Q289.15-23.63 289.66-23.99 290.16-24.34 290.99-24.72 291.82-25.1 292.96-25.38 294.11-25.66 295.53-25.66L295.53-25.66Q297.33-25.66 299.05-25.07 300.78-24.49 302.11-23.05 303.44-21.61 304.24-19.15 305.05-16.7 305.05-12.96L305.05-12.96Q305.05-9.74 304.06-7.23 303.07-4.71 301.41-3 299.75-1.29 297.54-0.4 295.33 0.49 292.89 0.49L292.89 0.49Q292.26 0.49 291.53 0.44 290.81 0.39 290.23 0.32L290.23 0.32Q289.52 0.24 288.86 0.15L288.86 0.15ZM288.86-20.34L288.86-3.61Q289.28-3.49 289.98-3.39 290.69-3.3 291.55-3.3L291.55-3.3Q293.38-3.3 294.87-3.99 296.36-4.69 297.39-5.94 298.43-7.2 299.01-8.98 299.58-10.77 299.58-12.96L299.58-12.96Q299.58-15.67 299.1-17.37 298.63-19.07 297.74-20.03 296.85-21 295.58-21.34 294.31-21.68 292.74-21.68L292.74-21.68Q292.06-21.68 291.38-21.47 290.69-21.26 290.13-21L290.13-21Q289.47-20.7 288.86-20.34L288.86-20.34ZM323.57-1.2L323.57-1.2Q323.62-1.76 323.74-2.47L323.74-2.47Q323.87-3.05 324.07-3.87 324.28-4.69 324.7-5.64L324.7-5.64Q326.01-5.2 327.38-4.86L327.38-4.86Q328.55-4.57 329.95-4.32 331.34-4.08 332.61-4.08L332.61-4.08Q334.54-4.08 335.84-4.37 337.15-4.66 337.94-5.24 338.73-5.81 339.08-6.68 339.42-7.54 339.42-8.69L339.42-8.69Q339.42-9.99 339.06-10.89 338.71-11.79 337.99-12.45 337.27-13.11 336.15-13.57 335.02-14.04 333.49-14.48L333.49-14.48Q330.8-15.21 328.94-16.08 327.09-16.94 325.93-18.07 324.77-19.19 324.26-20.62 323.74-22.05 323.74-23.88L323.74-23.88Q323.74-26.51 324.56-28.39 325.38-30.27 326.88-31.47 328.38-32.67 330.52-33.23 332.66-33.79 335.29-33.79L335.29-33.79Q337.32-33.79 338.84-33.47 340.37-33.15 341.42-32.79L341.42-32.79Q342.64-32.35 343.54-31.79L343.54-31.79Q343.47-31.23 343.25-30.57L343.25-30.57Q343.06-30 342.71-29.25 342.37-28.49 341.76-27.61L341.76-27.61Q341.03-28.1 340.05-28.49L340.05-28.49Q339.2-28.83 337.99-29.11 336.78-29.39 335.19-29.39L335.19-29.39Q333.46-29.39 332.28-29.13 331.09-28.86 330.34-28.28 329.58-27.71 329.25-26.84 328.92-25.98 328.92-24.78L328.92-24.78Q328.92-23.44 329.26-22.55 329.6-21.66 330.36-21.03 331.12-20.41 332.33-19.95 333.53-19.48 335.24-18.99L335.24-18.99Q337.81-18.29 339.61-17.48 341.42-16.67 342.56-15.6 343.69-14.53 344.22-13.05 344.74-11.57 344.74-9.5L344.74-9.5Q344.74-6.93 344.08-5.04 343.42-3.15 341.98-1.88 340.54-0.61 338.27 0.01 336 0.63 332.8 0.63L332.8 0.63Q330.9 0.63 329.21 0.35 327.53 0.07 326.28-0.27L326.28-0.27Q324.79-0.68 323.57-1.2ZM349.21-12.48L349.21-12.48Q349.21-15.7 350.07-18.16 350.94-20.63 352.51-22.29 354.09-23.95 356.27-24.8 358.46-25.66 361.1-25.66L361.1-25.66Q363.81-25.66 365.98-24.87 368.15-24.07 369.66-22.46 371.18-20.85 371.98-18.44 372.79-16.04 372.79-12.82L372.79-12.82Q372.79-9.59 371.97-7.1 371.15-4.61 369.63-2.93 368.1-1.25 365.94-0.38 363.78 0.49 361.1 0.49L361.1 0.49Q358.31 0.49 356.1-0.33 353.89-1.15 352.37-2.77 350.84-4.39 350.02-6.82 349.21-9.25 349.21-12.48ZM361.1-3.54L361.1-3.54Q362.71-3.54 363.89-4.24 365.07-4.93 365.83-6.16 366.59-7.4 366.95-9.09 367.32-10.79 367.32-12.82L367.32-12.82Q367.32-17.19 365.83-19.48 364.34-21.78 361.1-21.78L361.1-21.78Q359.46-21.78 358.25-21.08 357.04-20.39 356.25-19.14 355.46-17.9 355.07-16.19 354.67-14.48 354.67-12.48L354.67-12.48Q354.67-8.06 356.25-5.8 357.82-3.54 361.1-3.54ZM377.67-4.2L377.67-35.13 382.72-35.13 382.72-4.1 384.16-3.08 384.16 0 382.77 0 382.72-0.05 382.72 0Q380.31 0 378.99-0.98 377.67-1.95 377.67-4.2L377.67-4.2ZM389.17-8.18L389.17-24.95 394.39-24.95 394.39-8.64Q394.39-6.03 395.42-4.77 396.44-3.52 398.86-3.52L398.86-3.52Q400.03-3.52 400.98-3.71 401.94-3.91 402.64-4.17L402.64-4.17Q403.45-4.47 404.08-4.86L404.08-4.86 404.08-24.95 409.33-24.95 409.33-4.03 411.51-1.54 411.51 0 406.79 0 404.86-1.93 403.94-1.93Q403.74-1.78 403.2-1.39 402.67-1 401.83-0.57 400.98-0.15 399.88 0.17 398.79 0.49 397.49 0.49L397.49 0.49Q395.44 0.49 393.88-0.12 392.32-0.73 391.27-1.87 390.22-3 389.69-4.6 389.17-6.2 389.17-8.18L389.17-8.18ZM417.63-6.98L417.63-21.17 414.43-21.17Q414.41-21.44 414.38-21.75L414.38-21.75Q414.36-22.02 414.35-22.39 414.33-22.75 414.33-23.19L414.33-23.19Q414.33-23.63 414.36-24.01 414.38-24.39 414.43-24.95L414.43-24.95 417.63-24.95 417.63-28.83 420.44-32.01 422.61-32.01 422.61-24.95 429.52-24.95Q429.57-24.71 429.61-24.37 429.64-24.02 429.64-23.71L429.64-23.71Q429.64-23.14 429.53-22.68 429.42-22.22 429.3-21.88L429.3-21.88Q429.15-21.48 428.96-21.17L428.96-21.17 422.61-21.17 422.61-7.01Q422.61-5.22 423.21-4.42 423.81-3.61 425.13-3.61L425.13-3.61Q425.69-3.61 426.31-3.75 426.93-3.88 427.49-4.08L427.49-4.08Q428.13-4.3 428.79-4.57L428.79-4.57Q429.28-3.93 429.56-3.32 429.84-2.71 429.96-2.22L429.96-2.22Q430.11-1.66 430.13-1.17L430.13-1.17Q429.45-0.71 428.59-0.34L428.59-0.34Q427.84-0.02 426.79 0.23 425.74 0.49 424.37 0.49L424.37 0.49Q422.46 0.49 421.18 0.01 419.9-0.46 419.11-1.4 418.31-2.34 417.97-3.75 417.63-5.15 417.63-6.98L417.63-6.98ZM437.57-29.17L437.57-29.17Q436.89-29.17 436.29-29.42 435.69-29.66 435.24-30.08 434.79-30.49 434.52-31.04 434.25-31.59 434.25-32.23L434.25-32.23Q434.25-32.89 434.52-33.45 434.79-34.01 435.24-34.42 435.69-34.84 436.29-35.07 436.89-35.3 437.57-35.3L437.57-35.3Q438.26-35.3 438.87-35.07 439.48-34.84 439.93-34.42 440.38-34.01 440.65-33.45 440.92-32.89 440.92-32.23L440.92-32.23Q440.92-31.59 440.65-31.04 440.38-30.49 439.93-30.08 439.48-29.66 438.87-29.42 438.26-29.17 437.57-29.17ZM434.77-4.2L434.77-24.95 439.85-24.95 439.85-4.1 441.29-3.08 441.29 0 439.89 0 439.85-0.05 439.85 0Q437.43 0 436.1-0.98 434.77-1.95 434.77-4.2L434.77-4.2ZM445.9-12.48L445.9-12.48Q445.9-15.7 446.76-18.16 447.63-20.63 449.21-22.29 450.78-23.95 452.97-24.8 455.15-25.66 457.79-25.66L457.79-25.66Q460.5-25.66 462.67-24.87 464.84-24.07 466.36-22.46 467.87-20.85 468.68-18.44 469.48-16.04 469.48-12.82L469.48-12.82Q469.48-9.59 468.66-7.1 467.85-4.61 466.32-2.93 464.79-1.25 462.63-0.38 460.47 0.49 457.79 0.49L457.79 0.49Q455 0.49 452.79-0.33 450.58-1.15 449.06-2.77 447.53-4.39 446.72-6.82 445.9-9.25 445.9-12.48ZM457.79-3.54L457.79-3.54Q459.4-3.54 460.58-4.24 461.77-4.93 462.52-6.16 463.28-7.4 463.65-9.09 464.01-10.79 464.01-12.82L464.01-12.82Q464.01-17.19 462.52-19.48 461.03-21.78 457.79-21.78L457.79-21.78Q456.15-21.78 454.94-21.08 453.73-20.39 452.94-19.14 452.15-17.9 451.76-16.19 451.37-14.48 451.37-12.48L451.37-12.48Q451.37-8.06 452.94-5.8 454.52-3.54 457.79-3.54ZM475.05 0L475.05-20.48 473.12-22.46 473.12-25.22 477.61-25.22 479.71-23.32 480.42-23.46Q480.59-23.61 481.21-23.97 481.83-24.34 482.75-24.71 483.66-25.07 484.84-25.35 486.01-25.63 487.3-25.63L487.3-25.63Q489.35-25.63 490.95-25.02 492.55-24.41 493.65-23.28 494.75-22.14 495.31-20.56 495.87-18.97 495.87-16.99L495.87-16.99 495.87 0 490.62 0 490.62-16.48Q490.62-19.14 489.51-20.4 488.4-21.66 485.98-21.66L485.98-21.66Q484.79-21.66 483.76-21.45 482.74-21.24 481.95-20.97L481.95-20.97Q481.05-20.68 480.27-20.29L480.27-20.29 480.27 0 475.05 0ZM517.2 0L517.2-33.15 536.22-33.15Q536.22-32.98 536.25-32.79L536.25-32.79Q536.27-32.62 536.28-32.41 536.3-32.2 536.3-31.96L536.3-31.96Q536.3-31.54 536.14-30.7 535.98-29.86 535.44-28.76L535.44-28.76Q533.44-28.83 531.29-28.91L531.29-28.91Q529.46-28.96 527.2-29.02 524.94-29.08 522.75-29.08L522.75-29.08 522.75-18.26Q523.4-18.26 524.28-18.27 525.16-18.29 526.14-18.31 527.12-18.33 528.15-18.37 529.19-18.41 530.17-18.43L530.17-18.43Q532.46-18.51 534.95-18.58L534.95-18.58Q534.95-18.38 534.98-18.16L534.98-18.16Q535-17.97 535.01-17.71 535.03-17.46 535.03-17.19L535.03-17.19Q535.03-16.97 534.92-16.26 534.81-15.55 534.42-14.23L534.42-14.23Q531.83-14.23 529.53-14.26L529.53-14.26Q528.56-14.26 527.54-14.26 526.53-14.26 525.63-14.27 524.72-14.28 523.97-14.28 523.21-14.28 522.75-14.28L522.75-14.28 522.75 0 517.2 0ZM539.39-12.48L539.39-12.48Q539.39-15.7 540.26-18.16 541.13-20.63 542.7-22.29 544.28-23.95 546.46-24.8 548.65-25.66 551.28-25.66L551.28-25.66Q553.99-25.66 556.17-24.87 558.34-24.07 559.85-22.46 561.37-20.85 562.17-18.44 562.98-16.04 562.98-12.82L562.98-12.82Q562.98-9.59 562.16-7.1 561.34-4.61 559.82-2.93 558.29-1.25 556.13-0.38 553.97 0.49 551.28 0.49L551.28 0.49Q548.5 0.49 546.29-0.33 544.08-1.15 542.55-2.77 541.03-4.39 540.21-6.82 539.39-9.25 539.39-12.48ZM551.28-3.54L551.28-3.54Q552.89-3.54 554.08-4.24 555.26-4.93 556.02-6.16 556.78-7.4 557.14-9.09 557.51-10.79 557.51-12.82L557.51-12.82Q557.51-17.19 556.02-19.48 554.53-21.78 551.28-21.78L551.28-21.78Q549.65-21.78 548.44-21.08 547.23-20.39 546.44-19.14 545.64-17.9 545.25-16.19 544.86-14.48 544.86-12.48L544.86-12.48Q544.86-8.06 546.44-5.8 548.01-3.54 551.28-3.54ZM566.78-25.22L571.28-25.22 573.79-22.58Q574.06-23.19 574.49-23.74 574.91-24.29 575.49-24.71 576.06-25.12 576.78-25.37 577.5-25.61 578.36-25.61L578.36-25.61Q579.06-25.61 579.72-25.5 580.38-25.39 581.16-25.12L581.16-25.12Q581.19-25.07 581.22-24.73 581.26-24.39 581.26-23.88L581.26-23.88Q581.26-23.49 581.21-22.96 581.16-22.44 581.05-21.89 580.94-21.34 580.74-20.8 580.53-20.26 580.21-19.87L580.21-19.87 579.75-19.75Q579.26-20 578.66-20.17 578.06-20.34 577.43-20.34L577.43-20.34Q576.45-20.34 575.79-20.2 575.13-20.07 574.72-19.92L574.72-19.92Q574.23-19.75 573.94-19.53L573.94-19.53 573.94 0 568.71 0 568.71-20.48 566.78-22.46 566.78-25.22ZM599.81 0L599.81-33.15 605.35-33.15 605.35-19.07 618.29-19.07 618.29-33.15 623.81-33.15 623.81 0 618.29 0 618.29-14.82 605.35-14.82 605.35 0 599.81 0ZM633.91-29.17L633.91-29.17Q633.23-29.17 632.63-29.42 632.03-29.66 631.58-30.08 631.13-30.49 630.86-31.04 630.59-31.59 630.59-32.23L630.59-32.23Q630.59-32.89 630.86-33.45 631.13-34.01 631.58-34.42 632.03-34.84 632.63-35.07 633.23-35.3 633.91-35.3L633.91-35.3Q634.6-35.3 635.21-35.07 635.82-34.84 636.27-34.42 636.72-34.01 636.99-33.45 637.26-32.89 637.26-32.23L637.26-32.23Q637.26-31.59 636.99-31.04 636.72-30.49 636.27-30.08 635.82-29.66 635.21-29.42 634.6-29.17 633.91-29.17ZM631.11-4.2L631.11-24.95 636.18-24.95 636.18-4.1 637.63-3.08 637.63 0 636.23 0 636.18-0.05 636.18 0Q633.77 0 632.44-0.98 631.11-1.95 631.11-4.2L631.11-4.2ZM642.33-25.22L646.83-25.22 649.34-22.58Q649.61-23.19 650.04-23.74 650.46-24.29 651.04-24.71 651.61-25.12 652.33-25.37 653.05-25.61 653.91-25.61L653.91-25.61Q654.61-25.61 655.27-25.5 655.93-25.39 656.71-25.12L656.71-25.12Q656.74-25.07 656.78-24.73 656.81-24.39 656.81-23.88L656.81-23.88Q656.81-23.49 656.76-22.96 656.71-22.44 656.6-21.89 656.49-21.34 656.29-20.8 656.08-20.26 655.76-19.87L655.76-19.87 655.3-19.75Q654.81-20 654.21-20.17 653.61-20.34 652.98-20.34L652.98-20.34Q652-20.34 651.34-20.2 650.68-20.07 650.27-19.92L650.27-19.92Q649.78-19.75 649.49-19.53L649.49-19.53 649.49 0 644.26 0 644.26-20.48 642.33-22.46 642.33-25.22ZM663.77-29.17L663.77-29.17Q663.08-29.17 662.49-29.42 661.89-29.66 661.44-30.08 660.98-30.49 660.72-31.04 660.45-31.59 660.45-32.23L660.45-32.23Q660.45-32.89 660.72-33.45 660.98-34.01 661.44-34.42 661.89-34.84 662.49-35.07 663.08-35.3 663.77-35.3L663.77-35.3Q664.45-35.3 665.06-35.07 665.67-34.84 666.12-34.42 666.58-34.01 666.84-33.45 667.11-32.89 667.11-32.23L667.11-32.23Q667.11-31.59 666.84-31.04 666.58-30.49 666.12-30.08 665.67-29.66 665.06-29.42 664.45-29.17 663.77-29.17ZM660.96-4.2L660.96-24.95 666.04-24.95 666.04-4.1 667.48-3.08 667.48 0 666.09 0 666.04-0.05 666.04 0Q663.62 0 662.29-0.98 660.96-1.95 660.96-4.2L660.96-4.2ZM673.95 0L673.95-20.48 672.02-22.46 672.02-25.22 676.51-25.22 678.61-23.32 679.32-23.46Q679.49-23.61 680.11-23.97 680.73-24.34 681.65-24.71 682.56-25.07 683.74-25.35 684.91-25.63 686.2-25.63L686.2-25.63Q688.25-25.63 689.85-25.02 691.45-24.41 692.55-23.28 693.65-22.14 694.21-20.56 694.77-18.97 694.77-16.99L694.77-16.99 694.77 0 689.52 0 689.52-16.48Q689.52-19.14 688.41-20.4 687.3-21.66 684.88-21.66L684.88-21.66Q683.69-21.66 682.66-21.45 681.64-21.24 680.86-20.97L680.86-20.97Q679.95-20.68 679.17-20.29L679.17-20.29 679.17 0 673.95 0ZM703.46-0.44L703.46-1Q702.9-1.68 702.61-2.62 702.31-3.56 702.31-4.59L702.31-4.59Q702.31-5.71 702.47-6.56 702.63-7.4 702.83-7.96L702.83-7.96Q703.04-8.62 703.34-9.08L703.34-9.08 703.34-10.21Q702.17-11.38 701.47-12.96 700.77-14.55 700.77-16.82L700.77-16.82Q700.77-18.87 701.48-20.5 702.19-22.12 703.5-23.25 704.8-24.39 706.66-25 708.51-25.61 710.81-25.61L710.81-25.61 710.83-25.61Q712.44-25.61 713.51-25.49 714.57-25.37 715.23-25.22L715.23-25.22Q716.01-25.05 716.45-24.83L716.45-24.83 723.33-25.56 723.33-21.61 719.35-21.61Q719.67-21.29 720.01-20.78 720.35-20.26 720.64-19.63 720.92-18.99 721.1-18.27 721.28-17.55 721.28-16.82L721.28-16.82Q721.28-14.79 720.5-13.15 719.72-11.5 718.33-10.3 716.94-9.11 715.02-8.45 713.1-7.79 710.83-7.79L710.83-7.79 710.81-7.79Q710.3-7.79 709.71-7.82 709.12-7.86 708.51-7.92 707.9-7.98 707.34-8.07 706.78-8.15 706.32-8.28L706.32-8.28 706.32-4.91Q706.32-4.64 706.49-4.44 706.66-4.25 706.91-4.11 707.17-3.98 707.49-3.91 707.81-3.83 708.1-3.83L708.1-3.83 717.74-3.83Q719.48-3.83 720.66-3.34 721.84-2.86 722.58-1.99 723.31-1.12 723.63 0.1 723.94 1.32 723.94 2.78L723.94 2.78Q723.94 4.64 723.13 6.32 722.31 8.01 720.72 9.28 719.13 10.55 716.78 11.29 714.42 12.04 711.35 12.04L711.35 12.04 711.32 12.04Q708.78 12.04 706.78 11.49 704.78 10.94 703.4 9.97 702.02 9.01 701.29 7.69 700.55 6.37 700.55 4.83L700.55 4.83Q700.55 3.81 700.99 2.86 701.43 1.9 702 1.17L702 1.17Q702.63 0.32 703.46-0.44L703.46-0.44ZM710.81-11.43L710.83-11.43Q712.27-11.43 713.3-11.71 714.32-11.99 714.98-12.62 715.64-13.26 715.95-14.28 716.25-15.31 716.25-16.82L716.25-16.82Q716.25-19.58 714.98-20.78 713.71-21.97 710.83-21.97L710.83-21.97 710.81-21.97Q709.34-21.97 708.37-21.69 707.39-21.41 706.83-20.79 706.27-20.17 706.04-19.19 705.8-18.21 705.8-16.82L705.8-16.82Q705.8-15.45 706.02-14.44 706.24-13.43 706.82-12.76 707.39-12.08 708.36-11.76 709.32-11.43 710.81-11.43L710.81-11.43ZM705.34 3.93L705.34 3.93Q705.34 4.57 705.54 5.27 705.73 5.98 706.38 6.57 707.02 7.15 708.22 7.53 709.42 7.91 711.44 7.91L711.44 7.91 711.47 7.91Q713.4 7.91 714.84 7.46 716.28 7.01 717.22 6.27 718.16 5.54 718.62 4.64 719.09 3.74 719.09 2.83L719.09 2.83Q719.09 1.68 718.63 1.06 718.18 0.44 717.3 0.44L717.3 0.44 706.39 0.44Q706.1 0.76 705.72 1.68 705.34 2.61 705.34 3.93Z" opacity="1" transform="matrix(1,0,0,1,0,0)" fill="#ff5a2e" class="slogan-text-1" data-fill-palette-color="secondary" id="text-1"></path></svg></g></svg></g></svg></g></svg></g><g><svg viewBox="0 0 458.86157028992545 458.86157028992545" height="458.86157028992545" width="458.86157028992545"><g><svg></svg></g><g id="icon-0"><svg viewBox="0 0 458.86157028992545 458.86157028992545" height="458.86157028992545" width="458.86157028992545"><g><path d="M0 229.431c0-126.711 102.72-229.431 229.431-229.431 126.711 0 229.431 102.72 229.431 229.431 0 126.711-102.72 229.431-229.431 229.431-126.711 0-229.431-102.72-229.431-229.431zM229.431 452.355c123.118 0 222.924-99.807 222.924-222.924 0-123.118-99.807-222.924-222.924-222.924-123.118 0-222.924 99.807-222.924 222.924 0 123.118 99.807 222.924 222.924 222.924z" data-fill-palette-color="accent" fill="#e65607" stroke="transparent"></path></g><g transform="matrix(1,0,0,1,92.80630421273634,94.30842832752984)"><svg viewBox="0 0 273.2489618644528 270.2447136348658" height="270.2447136348658" width="273.2489618644528"><g><svg xmlns="http://www.w3.org/2000/svg" xmlns:xlink="http://www.w3.org/1999/xlink" version="1.1" x="0" y="0" viewBox="9.22423212615036 9.534 56.55176092631299 55.93" enable-background="new 0 0 75 75" xml:space="preserve" height="270.2447136348658" width="273.2489618644528" class="icon-dxe-0" data-fill-palette-color="accent" id="dxe-0"><path fill="#e65607" d="M65.316 32.409C64.306 26.263 61.212 23.27 58.919 21.862L58.575 21.809S53.825 20.078 49.877 28.939C53.023 31.584 53.565 37.42 52.342 42.241 50.744 48.528 43.559 52.144 43.559 52.144L41.466 49.982 35.189 65.464H52.764L50.671 62.535S57.645 57.794 60.714 53.888 66.99 42.591 65.316 32.409" data-fill-palette-color="accent"></path><g fill="#e65607" data-fill-palette-color="accent"><path fill="#e65607" d="M25.705 47.82C12.733 31.362 32.121 22.645 32.121 22.645L33.794 25.156 39.932 9.534H22.356L24.727 12.463C21.519 13.788 16.987 18.251 16.987 18.251S7.921 27.457 9.384 40.638C10.849 53.819 18.869 54.725 18.869 54.725L34.63 54.307C30.655 54.028 25.705 47.82 25.705 47.82" data-fill-palette-color="accent"></path><path fill="#e65607" d="M40.628 20.693C36.166 21.111 34.073 27.667 34.073 27.667 30.857 38.067 28.374 43.588 27.135 46.027L26.926 46.462C29.743 50.441 32.796 52.396 36.103 53.489 38.353 53.656 41.675 44.962 41.675 44.962 44.488 37.616 45.884 34.362 48.371 28.016 48.774 27 50.736 21.047 55.134 20.656 52.199 20.562 44.233 20.355 40.628 20.693" data-fill-palette-color="accent"></path></g></svg></g></svg></g></svg></g></svg></g><g></g></svg></g><defs></defs></svg><rect width="187.05463996515277" height="247.2" fill="none" stroke="none" visibility="hidden"></rect></g></svg></g></svg>