<?xml version="1.0" standalone="no"?>
<!DOCTYPE svg PUBLIC "-//W3C//DTD SVG 20010904//EN"
 "http://www.w3.org/TR/2001/REC-SVG-20010904/DTD/svg10.dtd">
<svg version="1.0" xmlns="http://www.w3.org/2000/svg"
 width="1978.000000pt" height="1978.000000pt" viewBox="0 0 1978.000000 1978.000000"
 preserveAspectRatio="xMidYMid meet">
<metadata>
Created by potrace 1.14, written by Peter Selinger 2001-2017
</metadata>
<g transform="translate(0.000000,1978.000000) scale(0.100000,-0.100000)"
fill="#000000" stroke="none">
<path d="M9628 19745 c-2 -2 -73 -6 -158 -10 -85 -4 -168 -9 -185 -11 -16 -2
-57 -6 -90 -9 -137 -12 -174 -16 -192 -19 -10 -2 -44 -7 -77 -11 -32 -3 -68
-8 -80 -10 -11 -2 -70 -11 -131 -20 -60 -9 -153 -24 -205 -35 -52 -10 -106
-21 -120 -24 -53 -10 -119 -25 -210 -46 -52 -12 -102 -23 -110 -25 -8 -2 -67
-18 -130 -35 -63 -17 -122 -33 -130 -35 -8 -2 -34 -10 -57 -19 -24 -8 -43 -13
-43 -11 0 2 -17 -3 -37 -11 -20 -9 -44 -17 -52 -19 -37 -8 -244 -81 -421 -148
-148 -56 -349 -143 -519 -224 -53 -25 -105 -49 -116 -54 -126 -55 -580 -318
-787 -457 -143 -95 -232 -156 -238 -162 -3 -3 -68 -52 -145 -109 -77 -58 -142
-107 -145 -111 -3 -3 -30 -26 -60 -49 -201 -158 -590 -521 -775 -726 -14 -16
-43 -48 -63 -70 -21 -22 -64 -71 -97 -110 -33 -38 -62 -72 -65 -75 -3 -3 -44
-52 -90 -110 -47 -58 -87 -107 -90 -110 -5 -5 -146 -194 -176 -235 -7 -11 -28
-40 -46 -65 -120 -168 -322 -489 -418 -665 -18 -33 -41 -73 -50 -90 -28 -49
-155 -305 -192 -385 -69 -148 -77 -166 -118 -264 -101 -241 -207 -540 -275
-779 -19 -64 -36 -121 -39 -125 -3 -5 -7 -19 -10 -33 -2 -13 -18 -78 -34 -144
-17 -66 -40 -165 -52 -220 -12 -55 -23 -109 -26 -120 -14 -63 -56 -320 -73
-445 -20 -144 -25 -186 -36 -310 -4 -36 -8 -78 -10 -95 -26 -229 -26 -1089 0
-1226 2 -9 6 -56 10 -105 3 -49 8 -96 10 -104 2 -8 7 -44 10 -80 3 -36 8 -72
10 -80 2 -8 7 -40 10 -70 3 -30 8 -66 10 -80 3 -14 7 -41 10 -60 39 -249 123
-628 186 -844 12 -38 22 -76 24 -85 5 -27 141 -430 170 -506 139 -360 278
-661 423 -923 34 -61 62 -115 62 -118 0 -3 14 -26 30 -51 17 -24 30 -46 30
-48 0 -7 108 -183 187 -305 354 -545 824 -1090 1304 -1512 35 -31 75 -66 89
-78 91 -81 340 -278 470 -373 155 -113 519 -351 645 -421 17 -9 46 -26 65 -37
122 -73 631 -329 654 -329 3 0 33 -13 68 -29 87 -41 210 -92 230 -96 9 -2 25
-8 35 -13 53 -28 587 -208 673 -227 8 -2 67 -17 130 -33 63 -17 126 -33 140
-35 14 -3 45 -10 70 -17 25 -7 59 -14 75 -17 17 -2 46 -8 65 -13 30 -8 240
-48 335 -64 54 -9 239 -35 290 -41 28 -3 64 -7 80 -9 17 -2 64 -7 105 -11 41
-3 91 -8 110 -10 260 -27 933 -28 1240 -1 115 11 188 18 210 21 14 2 48 7 75
10 103 11 255 32 299 41 11 2 50 9 86 14 269 43 768 168 1055 265 104 35 223
78 255 90 19 8 89 35 155 61 129 49 130 50 340 145 337 152 714 362 1030 572
93 62 326 227 335 237 3 3 23 18 45 34 95 70 355 283 441 361 6 6 50 46 99 90
140 127 401 391 520 526 90 102 158 183 215 254 35 44 67 82 70 85 38 31 408
560 507 725 62 104 142 240 166 285 16 30 38 69 47 85 25 41 171 334 210 420
188 411 374 942 455 1295 2 8 18 76 35 150 18 74 34 146 36 160 6 37 13 72 29
142 2 12 7 38 10 58 3 20 7 47 10 60 3 13 7 42 10 65 3 22 10 65 15 95 11 64
37 286 45 380 3 36 8 79 10 95 26 209 27 968 0 1225 -2 19 -6 64 -10 100 -7
77 -15 155 -20 190 -2 14 -6 46 -9 72 -6 47 -9 69 -27 188 -41 271 -125 654
-192 875 -12 39 -22 72 -22 75 -24 112 -219 654 -300 835 -97 216 -124 274
-167 360 -65 130 -155 300 -185 347 -13 21 -23 40 -23 43 0 5 -45 81 -85 145
-12 19 -46 73 -75 120 -348 557 -786 1083 -1275 1532 -103 95 -257 228 -330
286 -38 31 -72 58 -75 61 -3 4 -43 35 -90 71 -47 35 -89 68 -95 72 -46 38
-362 258 -370 258 -3 0 -26 15 -52 34 -202 144 -730 425 -1101 585 -250 109
-661 255 -892 316 -149 40 -288 77 -300 80 -8 1 -78 17 -155 33 -77 17 -151
33 -165 35 -14 3 -63 12 -110 20 -100 19 -342 54 -420 62 -30 3 -66 8 -80 10
-14 2 -52 7 -85 9 -33 3 -94 8 -135 11 -41 3 -104 8 -140 11 -72 5 -707 14
-712 9z m662 -219 c243 -15 310 -21 505 -46 44 -6 96 -13 116 -16 20 -2 53 -7
73 -9 41 -6 194 -32 228 -40 26 -5 66 -13 118 -21 19 -3 49 -9 65 -14 17 -5
46 -12 65 -15 184 -31 678 -177 960 -283 202 -77 237 -91 430 -177 345 -153
689 -341 1005 -550 121 -80 150 -99 231 -157 18 -13 53 -38 78 -55 26 -18 52
-37 59 -43 6 -5 57 -45 112 -87 329 -255 650 -553 945 -879 66 -72 255 -298
305 -364 28 -36 56 -71 62 -78 73 -77 483 -690 483 -721 0 -5 4 -11 8 -13 4
-2 34 -50 65 -108 32 -58 62 -112 68 -120 5 -8 58 -114 118 -235 99 -200 137
-284 231 -510 52 -126 203 -561 215 -618 2 -10 9 -32 14 -50 15 -45 51 -177
57 -207 3 -14 11 -47 19 -75 8 -27 16 -61 19 -75 2 -14 9 -43 14 -65 6 -22 14
-56 17 -75 3 -19 15 -73 25 -120 10 -47 22 -107 25 -135 4 -27 8 -57 10 -65 2
-8 7 -31 10 -50 3 -19 7 -46 10 -60 2 -14 7 -45 10 -70 3 -25 10 -76 15 -115
14 -106 21 -171 35 -340 25 -295 26 -899 1 -1145 -4 -32 -8 -82 -21 -230 -3
-30 -10 -89 -16 -130 -6 -41 -13 -91 -15 -110 -3 -19 -6 -44 -9 -55 -2 -11 -7
-42 -10 -70 -4 -27 -20 -117 -37 -200 -16 -82 -32 -161 -34 -175 -3 -14 -25
-108 -50 -210 -192 -779 -516 -1523 -962 -2210 -137 -212 -461 -645 -551 -737
-7 -8 -29 -33 -48 -56 -172 -208 -531 -562 -794 -783 -273 -229 -504 -399
-807 -593 -79 -50 -145 -91 -147 -91 -1 0 -32 -17 -66 -39 -159 -96 -554 -298
-744 -380 -55 -24 -113 -49 -130 -57 -48 -21 -265 -104 -330 -125 -33 -11 -67
-24 -75 -28 -21 -11 -124 -44 -384 -120 -137 -41 -416 -110 -546 -135 -14 -3
-50 -10 -80 -15 -30 -6 -66 -13 -80 -16 -30 -6 -61 -11 -120 -20 -58 -8 -81
-12 -160 -24 -36 -6 -92 -13 -125 -17 -33 -3 -68 -8 -79 -10 -10 -2 -59 -6
-110 -9 -50 -4 -102 -8 -116 -11 -154 -25 -865 -25 -1170 0 -154 13 -197 18
-210 21 -8 2 -46 7 -84 10 -38 3 -72 8 -75 10 -3 1 -37 6 -75 10 -38 3 -72 8
-75 10 -3 1 -24 6 -46 9 -121 19 -243 41 -345 63 -63 13 -124 26 -135 29 -11
2 -74 18 -140 35 -66 17 -127 32 -135 34 -8 2 -15 4 -15 5 0 1 -7 3 -15 5 -8
2 -24 6 -35 9 -11 2 -72 21 -135 41 -63 19 -122 37 -131 40 -27 6 -106 34
-366 129 -69 26 -222 89 -363 152 -97 42 -467 227 -541 270 -217 125 -273 159
-429 259 -67 43 -319 216 -345 237 -5 4 -44 33 -85 65 -137 104 -292 230 -426
348 -313 275 -674 658 -922 980 -34 44 -65 85 -70 90 -128 161 -371 530 -523
797 -66 117 -242 461 -297 584 -44 99 -126 295 -162 389 -78 203 -215 631
-236 732 -2 12 -9 34 -14 48 -5 14 -7 25 -5 25 2 0 0 11 -5 25 -5 14 -12 36
-14 48 -2 12 -13 62 -25 110 -12 49 -23 101 -26 115 -2 15 -13 72 -24 127 -10
55 -22 116 -25 135 -3 19 -8 44 -10 56 -2 12 -8 45 -11 75 -4 30 -9 63 -10 74
-19 138 -25 188 -30 235 -10 102 -16 155 -20 190 -25 219 -25 933 0 1190 3 25
7 72 10 105 6 62 7 73 25 215 6 47 13 103 16 125 2 22 7 51 9 65 3 14 7 41 10
60 3 19 7 46 10 60 3 14 7 41 10 60 5 30 13 72 29 155 4 19 43 197 51 234 11
49 68 263 81 306 8 28 17 60 20 73 21 105 207 616 306 842 174 397 439 878
647 1175 154 220 416 566 442 585 4 3 21 22 38 43 16 21 63 75 103 119 40 45
81 90 91 102 43 50 283 290 392 391 65 61 126 117 134 125 29 27 244 205 331
273 47 37 90 72 97 77 7 6 27 20 45 33 18 12 67 47 108 78 105 77 348 239 360
239 6 0 10 3 10 8 0 4 9 12 19 17 11 6 66 38 123 71 262 156 528 293 803 414
28 12 64 28 80 35 118 53 357 143 565 211 102 34 390 119 433 129 12 2 60 14
107 25 88 21 332 74 385 84 82 14 224 37 255 42 19 3 46 7 60 9 41 7 279 34
360 40 41 4 86 8 100 11 14 2 97 6 185 10 88 4 161 7 162 8 6 5 515 -2 613 -8z"/>
<path d="M7524 16678 c-4 -6 28 -47 235 -303 57 -71 109 -135 113 -142 6 -8
-15 -23 -69 -49 -290 -142 -766 -507 -1113 -854 -105 -105 -114 -115 -216
-245 -385 -488 -659 -1020 -859 -1665 -9 -30 -18 -62 -20 -70 -2 -8 -15 -62
-28 -120 -29 -118 -52 -233 -63 -300 -3 -25 -8 -52 -9 -61 -3 -14 -10 -65 -20
-149 -28 -223 -28 -733 0 -940 2 -14 6 -52 10 -85 4 -33 9 -62 10 -65 2 -3 6
-34 10 -70 4 -36 9 -68 11 -71 2 -4 6 -24 10 -45 5 -35 38 -191 50 -236 2 -10
6 -26 8 -35 2 -10 18 -65 35 -123 186 -624 524 -1088 971 -1333 61 -33 202
-94 239 -102 9 -2 39 -10 66 -18 32 -9 90 -13 160 -11 183 3 611 14 765 19 80
2 251 7 380 10 129 4 285 8 345 10 61 2 241 6 400 10 413 10 445 11 450 18 3
4 2 5 -1 3 -17 -12 -189 42 -293 92 -337 161 -808 581 -1130 1006 -78 104
-231 328 -231 340 0 3 -13 24 -29 48 -33 50 -144 269 -191 378 -63 145 -127
358 -155 520 -46 258 -36 566 26 795 6 22 12 45 13 50 20 91 103 293 178 429
33 61 64 112 69 114 5 2 9 8 9 13 0 33 210 297 350 440 93 94 137 136 246 229
93 81 348 264 469 337 170 103 315 177 325 166 4 -4 64 -93 133 -196 l125
-188 88 223 c49 123 89 225 89 228 1 3 9 22 18 44 9 21 17 40 17 42 0 4 115
298 129 329 5 11 32 81 61 155 80 206 231 592 240 615 5 11 23 56 40 100 48
123 82 207 95 240 47 111 184 470 181 473 -7 6 -2738 7 -2742 0z"/>
<path d="M10838 14955 c-2 -2 -79 -6 -173 -9 -93 -4 -190 -9 -215 -11 -25 -3
-68 -7 -96 -10 -107 -10 -264 -75 -374 -154 -189 -137 -378 -381 -514 -665
-69 -144 -100 -225 -162 -424 -98 -317 -349 -1060 -427 -1267 -9 -22 -39 -103
-67 -180 -164 -442 -335 -848 -519 -1228 l-62 -128 23 -32 c12 -17 28 -39 35
-47 6 -8 33 -42 59 -75 236 -297 491 -526 778 -699 72 -44 221 -121 306 -159
47 -21 230 -88 251 -92 33 -6 136 53 193 110 87 87 200 246 296 420 53 95 231
456 235 475 0 3 11 28 24 55 32 70 98 234 166 410 91 235 182 470 230 590 119
302 458 1154 471 1185 25 57 31 73 44 110 7 19 19 49 26 65 7 17 65 163 129
325 193 491 206 520 276 658 68 132 158 274 234 366 61 76 205 216 220 216 4
0 23 13 43 30 69 55 260 132 330 133 6 0 12 3 12 7 0 4 -51 8 -112 9 -62 2
-156 5 -208 7 -112 4 -1448 13 -1452 9z"/>
<path d="M12931 14764 c-222 -38 -435 -165 -621 -370 -113 -125 -183 -220
-276 -377 -65 -109 -176 -324 -188 -363 -5 -17 8 -36 64 -94 83 -86 165 -205
221 -324 39 -84 112 -292 123 -351 2 -16 14 -80 25 -142 72 -397 33 -937 -95
-1320 -153 -458 -533 -910 -1070 -1271 -88 -59 -260 -162 -271 -162 -3 0 -18
15 -35 33 -116 125 -292 297 -298 290 -4 -4 -29 -62 -55 -128 -26 -66 -53
-133 -60 -150 -7 -16 -27 -64 -43 -105 -31 -77 -108 -266 -237 -585 -40 -99
-103 -254 -140 -345 -71 -177 -92 -225 -106 -252 -5 -10 -9 -22 -9 -28 0 -6
-9 -29 -19 -53 -11 -23 -38 -89 -61 -147 -22 -58 -45 -114 -50 -125 -10 -21
-151 -368 -181 -447 -11 -27 -18 -49 -16 -49 9 -5 2747 -3 2747 2 0 5 -107
160 -127 184 -20 23 -184 257 -186 265 -1 4 41 39 93 76 103 73 482 355 490
364 3 3 50 42 106 86 107 86 110 89 224 185 206 174 432 392 561 540 94 109
109 126 139 169 13 19 27 37 30 40 15 14 153 231 200 314 223 403 377 847 455
1309 20 126 27 169 41 292 14 129 19 250 19 510 0 290 -4 363 -29 590 -17 151
-52 372 -73 450 -8 33 -17 70 -19 83 -9 48 -76 257 -110 345 -41 103 -143 314
-174 357 -11 15 -20 31 -20 34 0 3 -21 36 -47 73 -147 212 -328 396 -519 526
-53 36 -88 52 -140 62 -99 21 -178 23 -263 9z"/>
<path d="M5116 2569 c0 -818 3 -1142 11 -1147 9 -5 383 -8 439 -3 7 1 10 267
10 909 l-1 907 -51 85 c-27 47 -53 92 -57 100 -4 8 -32 56 -63 105 -31 50 -67
111 -81 138 l-25 47 -92 0 -91 0 1 -1141z"/>
<path d="M9514 3606 c-154 -55 -221 -221 -146 -359 118 -218 450 -145 466 102
10 138 -98 259 -237 265 -29 1 -66 -2 -83 -8z"/>
<path d="M12610 3607 c-67 -14 -129 -63 -168 -132 -26 -48 -23 -169 6 -225 59
-110 201 -164 313 -117 50 20 106 73 132 121 28 53 30 164 4 217 -53 108 -165
161 -287 136z"/>
<path d="M3464 3365 c-2 -5 -3 -446 -2 -979 l3 -970 265 0 265 0 3 427 2 427
335 0 335 0 0 125 0 125 -335 0 -335 0 0 300 c0 233 3 300 13 301 6 0 201 1
432 2 l420 0 0 124 c0 76 -4 123 -10 124 -5 1 -320 2 -699 3 -451 1 -690 -2
-692 -9z"/>
<path d="M10234 3371 c-2 -2 -4 -442 -4 -977 0 -917 1 -972 18 -976 14 -3 467
-2 510 1 9 1 12 93 12 426 l0 425 358 0 357 0 0 -425 c0 -278 3 -426 10 -428
8 -2 510 0 525 2 4 1 5 1934 1 1951 -1 4 -513 5 -531 1 -3 0 -5 -191 -5 -423
l0 -423 -357 -3 -358 -2 -2 427 -3 428 -263 0 c-145 0 -265 -2 -268 -4z"/>
<path d="M6544 3013 c-32 -7 -70 -15 -84 -17 -47 -10 -145 -50 -195 -80 -126
-76 -207 -155 -278 -270 -81 -133 -115 -263 -115 -441 0 -270 100 -487 298
-646 272 -218 727 -229 1033 -25 54 36 177 159 177 178 0 4 11 26 24 47 l25
39 -96 36 c-103 39 -113 41 -113 26 0 -6 -18 -39 -40 -74 -84 -133 -225 -210
-383 -208 -207 2 -350 115 -421 334 -9 26 -18 61 -21 77 -5 28 -3 29 22 25 14
-3 33 -9 42 -13 9 -5 34 -11 56 -15 22 -3 69 -10 105 -16 65 -10 304 -6 370 5
364 65 560 290 510 584 -34 203 -179 347 -419 417 -157 46 -378 62 -497 37z
m327 -200 c135 -42 215 -155 222 -315 6 -131 -19 -208 -92 -277 -77 -73 -185
-101 -366 -96 -99 3 -139 7 -209 21 -11 2 -36 7 -53 10 -35 7 -35 7 -35 69 -1
125 27 244 86 367 56 116 161 211 248 225 18 3 35 7 37 9 11 10 114 2 162 -13z"/>
<path d="M14118 3024 c-2 -1 -19 -4 -38 -7 -70 -11 -183 -59 -216 -91 -7 -8
-24 -23 -37 -33 -36 -28 -111 -131 -146 -202 -18 -34 -35 -60 -38 -57 -4 3
-46 84 -94 179 l-87 172 -79 1 c-43 0 -82 -3 -88 -7 -7 -5 -10 -275 -9 -781 1
-425 2 -775 3 -778 1 -4 430 -5 451 -1 3 1 5 193 6 429 0 391 4 503 19 587 37
203 117 339 217 366 85 22 162 -4 230 -79 43 -49 118 -185 118 -216 0 -8 5
-18 10 -21 6 -3 10 -17 10 -31 0 -13 3 -24 6 -24 7 0 43 43 44 52 0 6 167 284
208 346 14 22 13 25 -31 67 -56 53 -126 87 -227 109 -63 14 -224 28 -232 20z"/>
<path d="M15430 3018 c-30 -4 -77 -13 -105 -20 -27 -6 -51 -11 -52 -10 -8 4
-161 -72 -210 -105 -58 -38 -183 -156 -183 -173 0 -5 -6 -15 -13 -22 -42 -43
-105 -187 -131 -299 -22 -96 -15 -323 13 -419 38 -128 108 -250 201 -350 88
-94 277 -193 411 -215 24 -4 53 -9 64 -12 11 -2 65 -4 120 -4 247 1 449 76
596 221 68 68 129 154 129 184 0 11 -137 66 -174 69 -14 1 -27 -12 -45 -47
-55 -107 -192 -210 -306 -231 -100 -18 -241 3 -314 47 -105 62 -193 197 -217
331 -2 16 -6 34 -7 40 -1 7 5 10 13 8 164 -40 242 -49 390 -46 85 2 164 5 175
8 11 2 38 8 60 12 22 5 42 9 45 10 3 1 19 5 35 10 65 17 194 86 242 129 98 89
143 183 149 317 11 247 -127 424 -405 521 -31 10 -72 21 -91 24 -19 3 -42 7
-50 9 -62 17 -260 24 -340 13z m331 -220 c125 -58 190 -178 184 -344 -5 -184
-103 -293 -290 -322 -79 -12 -359 -3 -385 13 -4 2 -22 7 -41 10 -18 3 -35 8
-38 11 -7 6 -1 123 9 189 13 82 16 93 35 145 64 178 164 287 294 320 63 16
171 6 232 -22z"/>
<path d="M7607 2960 c9 -14 35 -51 57 -82 67 -94 109 -155 226 -323 61 -88
117 -168 125 -177 7 -9 19 -27 26 -40 6 -13 15 -25 19 -28 3 -3 31 -42 62 -87
l56 -82 -51 -64 c-116 -143 -256 -313 -273 -333 -11 -12 -30 -36 -43 -53 -14
-18 -68 -85 -122 -149 -64 -78 -92 -119 -83 -122 11 -4 270 -5 296 -1 5 1 75
95 138 188 71 104 254 353 259 353 3 0 42 -52 86 -116 44 -63 96 -137 115
-164 19 -27 68 -96 108 -154 41 -58 77 -106 80 -107 20 -3 452 -3 452 -1 0 3
-96 144 -134 197 -8 11 -117 166 -241 344 -198 284 -224 326 -212 340 8 9 97
113 198 231 102 118 196 228 209 244 14 16 54 63 89 105 36 42 70 83 77 91 12
14 -3 16 -142 16 l-155 1 -37 -46 c-20 -25 -41 -51 -47 -58 -5 -6 -46 -60 -90
-118 -44 -59 -115 -152 -157 -206 -85 -110 -82 -109 -129 -32 -13 21 -26 40
-29 43 -3 3 -39 53 -80 113 -41 59 -106 151 -143 205 l-69 97 -229 0 -229 1
17 -26z"/>
<path d="M9362 2980 c-12 -8 -9 -1560 3 -1561 40 -4 438 -3 444 1 4 3 7 356 7
785 l-1 780 -223 0 c-123 0 -227 -2 -230 -5z"/>
<path d="M12439 2970 c0 -8 0 -359 0 -779 -1 -491 3 -766 9 -770 8 -5 409 -6
445 -2 4 1 6 353 5 784 l-3 782 -227 0 c-196 0 -228 -2 -229 -15z"/>
<path d="M10159 818 c-6 -15 -3 -520 4 -540 9 -28 25 -38 69 -44 33 -4 44 20
23 52 -12 19 -15 67 -15 279 l0 255 -40 0 c-22 0 -41 -1 -41 -2z"/>
<path d="M11116 804 c-21 -21 -20 -47 2 -67 24 -22 55 -21 75 1 32 35 10 82
-38 82 -13 0 -31 -7 -39 -16z"/>
<path d="M14392 808 c-20 -20 -15 -66 9 -78 27 -15 66 -5 79 21 25 45 -51 94
-88 57z"/>
<path d="M14893 805 c-25 -18 -23 -53 4 -72 48 -36 110 18 77 66 -18 25 -51
27 -81 6z"/>
<path d="M5870 784 c-75 -22 -130 -90 -145 -179 -7 -44 -7 -155 0 -196 22
-121 109 -190 231 -184 143 7 216 101 217 280 1 124 -15 182 -64 234 -47 50
-154 70 -239 45z m119 -64 c66 -19 93 -80 92 -209 -1 -153 -48 -223 -144 -216
-86 6 -119 58 -123 195 -5 143 22 209 90 229 42 12 46 12 85 1z"/>
<path d="M7482 782 c-105 -35 -136 -185 -51 -256 16 -14 61 -35 99 -48 88 -28
110 -47 110 -97 0 -70 -58 -93 -175 -71 -36 7 -68 10 -70 8 -3 -2 -8 -18 -11
-35 -6 -29 -3 -32 32 -44 60 -20 191 -17 237 5 48 24 77 78 77 143 0 86 -37
124 -158 163 -37 12 -75 29 -84 37 -21 19 -24 81 -5 107 19 26 85 35 143 20
64 -17 59 -18 72 11 17 38 16 42 -24 55 -52 18 -143 19 -192 2z"/>
<path d="M9374 788 c-35 -7 -102 -56 -105 -77 0 -3 -3 -15 -5 -26 -3 -11 -5
-40 -4 -64 1 -76 27 -98 197 -161 42 -16 56 -33 59 -76 2 -44 -21 -70 -70 -79
-34 -7 -122 4 -157 19 -12 5 -18 1 -23 -17 -3 -14 -8 -32 -11 -39 -16 -41 212
-59 275 -22 62 36 89 114 67 194 -13 48 -69 92 -136 105 -40 8 -100 38 -106
53 -28 69 2 121 70 124 46 1 105 -10 121 -23 17 -14 47 52 31 68 -23 23 -134
35 -203 21z"/>
<path d="M3857 782 c-3 -4 31 -81 75 -172 l80 -165 1 -105 2 -105 43 -1 c23
-1 43 2 43 5 1 3 2 51 3 106 l2 100 68 140 c38 77 74 154 81 170 l14 31 -44 1
c-24 1 -48 -4 -53 -10 -9 -11 -77 -167 -103 -235 -10 -25 -13 -20 -55 83 -25
61 -50 121 -55 135 -8 22 -16 26 -54 28 -24 1 -46 -2 -48 -6z"/>
<path d="M12489 785 c-1 0 -3 -124 -4 -276 l-1 -277 45 2 46 1 1 115 1 115 94
3 c97 3 109 8 109 50 0 23 -2 23 -96 21 -58 -1 -99 2 -103 9 -5 8 -6 130 -2
164 1 4 48 6 105 4 112 -4 116 -2 116 48 0 23 -1 23 -155 22 -85 0 -156 0
-156 -1z"/>
<path d="M13864 776 c-2 -6 -3 -130 -1 -276 l2 -265 43 -1 c24 -1 43 3 43 10
1 6 2 61 3 121 l1 110 108 3 107 3 0 -126 0 -125 43 4 c23 2 44 5 47 5 3 1 5
124 4 273 l-1 273 -44 0 -44 0 -3 -117 -3 -118 -107 0 -108 0 1 110 c1 61 -1
114 -4 118 -9 12 -82 10 -87 -2z"/>
<path d="M7873 742 c-14 -15 -23 -38 -23 -59 0 -29 -3 -33 -28 -33 -23 0 -27
-4 -28 -30 -2 -29 12 -37 49 -31 4 0 7 -61 7 -138 0 -152 9 -191 46 -212 30
-16 94 -16 134 1 34 14 35 18 15 47 -13 19 -20 21 -41 13 -34 -13 -40 -13 -57
5 -12 11 -15 45 -16 148 l-2 134 43 -1 c56 -2 78 9 78 39 0 24 -3 25 -60 25
l-60 0 0 58 c0 48 -3 58 -17 59 -10 0 -28 -11 -40 -25z"/>
<path d="M10849 744 c-13 -14 -25 -34 -25 -45 -1 -10 -2 -26 -3 -34 0 -9 -11
-15 -26 -15 -22 0 -25 -4 -25 -34 0 -30 2 -33 25 -28 19 3 25 0 26 -14 0 -11
2 -77 3 -149 2 -135 10 -166 47 -185 42 -23 159 -8 159 20 0 6 -5 19 -12 29
-9 15 -17 17 -39 11 -38 -11 -69 -2 -70 21 -4 54 -5 246 -1 256 2 7 21 10 48
9 49 -3 61 2 64 24 5 36 0 40 -58 40 l-58 0 1 48 c3 79 -13 92 -56 46z"/>
<path d="M4417 645 c-84 -29 -119 -91 -120 -205 0 -85 23 -145 70 -178 82 -58
222 -44 273 29 66 92 58 257 -15 325 -46 42 -136 55 -208 29z m122 -60 c26 -8
51 -64 55 -122 7 -102 -37 -174 -103 -169 -51 5 -65 12 -86 48 -24 42 -25 150
-2 195 28 53 72 69 136 48z"/>
<path d="M5207 649 c-17 -10 -12 -42 9 -60 11 -9 14 -49 14 -184 l0 -172 43 1
42 2 0 154 c1 86 5 161 9 168 5 9 24 12 52 11 51 -3 51 -3 59 40 4 23 1 37 -7
42 -25 16 -69 9 -93 -15 -23 -23 -23 -23 -43 -4 -21 22 -62 29 -85 17z"/>
<path d="M6240 629 c0 -15 7 -32 15 -39 12 -10 15 -44 15 -185 l0 -173 43 2
42 1 2 150 c1 83 2 158 2 167 1 25 35 40 89 40 76 0 82 -14 82 -202 l0 -157
43 1 42 1 2 155 c2 184 -9 224 -72 254 -44 21 -130 16 -170 -10 -22 -15 -26
-15 -40 0 -9 9 -22 16 -28 17 -7 0 -24 2 -39 3 -24 1 -28 -2 -28 -25z"/>
<path d="M6815 642 c-74 -35 -104 -93 -104 -202 -1 -109 35 -177 106 -201 44
-14 161 -15 197 0 24 10 27 15 21 39 -9 36 -10 37 -50 25 -50 -16 -135 -8
-157 14 -25 26 -40 79 -25 91 7 4 67 8 135 7 121 0 123 0 129 23 8 32 -3 106
-22 141 -36 71 -149 101 -230 63z m135 -67 c18 -16 43 -94 31 -96 -31 -6 -169
-4 -177 3 -20 15 6 78 39 99 34 20 81 17 107 -6z"/>
<path d="M8225 646 c-48 -21 -92 -73 -105 -124 -29 -117 7 -234 84 -272 121
-58 255 -6 286 111 24 87 4 197 -43 247 -46 49 -154 68 -222 38z m144 -69 c54
-45 54 -207 -1 -260 -29 -28 -78 -31 -115 -8 -77 48 -65 250 17 280 30 11 78
5 99 -12z"/>
<path d="M8559 653 c-6 -15 -2 -30 12 -40 14 -11 16 -43 15 -278 l-1 -266 45
3 45 3 0 75 1 74 57 2 c152 4 237 129 203 299 -22 114 -127 168 -228 116 -33
-16 -40 -17 -57 -4 -18 12 -89 25 -92 16z m266 -95 c16 -19 25 -43 26 -66 4
-136 -30 -192 -124 -200 l-53 -4 1 143 0 144 33 11 c48 15 89 6 117 -28z"/>
<path d="M9805 648 c-83 -29 -129 -120 -120 -238 8 -116 79 -182 194 -182 125
0 192 75 193 217 0 78 -16 127 -57 168 -44 44 -139 60 -210 35z m132 -69 c42
-23 59 -151 29 -222 -20 -48 -57 -71 -103 -64 -74 12 -106 93 -81 207 18 86
81 118 155 79z"/>
<path d="M11410 645 c-52 -24 -78 -52 -99 -109 -35 -95 -8 -228 55 -273 60
-43 157 -49 224 -14 20 10 48 38 64 65 27 42 30 56 30 129 0 141 -54 205 -177
213 -43 3 -73 0 -97 -11z m148 -69 c23 -22 39 -86 37 -141 -6 -114 -61 -162
-150 -132 -48 16 -70 101 -51 199 7 37 28 68 60 85 25 14 86 7 104 -11z"/>
<path d="M11768 652 c-22 -4 -24 -45 -3 -62 12 -10 15 -44 15 -186 l0 -173 43
2 42 3 3 167 c3 189 2 187 89 189 77 1 83 -13 83 -202 l0 -157 46 0 46 0 -4
171 c-3 152 -5 174 -23 198 -43 58 -138 73 -214 34 -25 -13 -31 -13 -52 2 -24
17 -42 20 -71 14z"/>
<path d="M12965 641 c-52 -24 -74 -50 -95 -112 -32 -94 -5 -223 56 -266 73
-52 191 -49 253 6 44 39 69 111 65 186 -3 71 -5 81 -26 120 -22 40 -45 58 -94
73 -58 17 -112 15 -159 -7z m133 -55 c33 -11 56 -66 56 -136 0 -83 -24 -135
-67 -149 -82 -26 -138 23 -139 122 -2 138 50 194 150 163z"/>
<path d="M13328 652 c-19 -4 -26 -52 -9 -52 19 0 24 -47 25 -205 l1 -160 43
-2 42 -1 0 164 0 164 25 6 c14 3 37 4 50 2 32 -7 47 12 43 54 -2 26 -8 34 -26
36 -31 5 -79 -15 -87 -36 -5 -14 -9 -12 -28 8 -21 24 -42 30 -79 22z"/>
<path d="M14588 652 c-19 -4 -26 -52 -9 -52 19 0 25 -48 25 -205 l1 -160 42
-2 43 -3 2 168 3 167 53 0 c57 0 53 -4 66 67 2 10 -5 19 -18 22 -37 10 -54 6
-83 -18 -26 -22 -28 -23 -43 -6 -16 18 -53 28 -82 22z"/>
<path d="M15070 639 c-7 -12 -4 -24 10 -42 18 -23 20 -40 20 -174 -1 -81 -1
-157 -1 -169 1 -18 7 -21 44 -21 l43 0 1 169 c0 93 3 171 6 174 8 8 50 15 92
15 63 0 72 -21 73 -165 1 -217 -4 -193 45 -192 l44 0 -1 166 c-1 143 -4 169
-20 197 -36 59 -123 78 -200 45 -40 -18 -46 -19 -66 -5 -31 22 -79 23 -90 2z"/>
<path d="M15638 646 c-86 -37 -115 -132 -67 -215 11 -18 17 -41 15 -50 -13
-43 -15 -79 -5 -109 10 -29 8 -36 -10 -56 -51 -55 -22 -137 59 -167 100 -38
241 -3 283 69 21 36 25 99 7 131 -18 35 -51 45 -155 47 -55 1 -106 3 -112 3
-8 1 -13 15 -13 35 l0 34 53 -3 c134 -8 231 92 183 191 -16 35 -15 37 27 37
17 0 18 1 20 38 1 21 -3 22 -128 24 -82 2 -140 -2 -157 -9z m108 -51 c73 -13
82 -144 11 -164 -81 -21 -129 12 -126 86 4 68 37 91 115 78z m98 -387 c16 -26
-4 -68 -42 -89 -43 -23 -134 -20 -161 5 -21 19 -22 83 -2 95 5 4 51 6 102 6
75 0 94 -3 103 -17z"/>
<path d="M4764 481 c2 -182 7 -202 61 -237 37 -24 115 -22 160 4 35 21 36 21
55 2 13 -13 31 -18 59 -17 45 2 51 15 21 42 -19 17 -20 31 -20 197 l0 178 -43
0 -43 0 -1 -166 c0 -91 -5 -170 -10 -175 -5 -5 -29 -12 -53 -15 -37 -5 -50 -2
-72 16 l-28 21 0 160 0 159 -44 0 -43 0 1 -169z"/>
<path d="M10350 490 c0 -174 9 -218 52 -241 52 -29 100 -30 157 -4 47 22 50
23 65 6 23 -26 96 -25 96 1 0 10 -4 18 -9 18 -19 0 -25 49 -26 210 l0 165 -45
0 -44 0 0 -166 0 -167 -35 -12 c-43 -14 -91 -7 -108 17 -16 21 -15 11 -17 183
l-1 145 -42 3 -43 3 0 -161z"/>
<path d="M11110 461 c0 -222 -1 -220 83 -226 25 -2 28 1 25 24 -2 14 -7 29
-13 33 -6 4 -11 74 -12 170 0 90 -2 169 -2 176 -1 7 -16 12 -41 12 l-40 0 0
-189z"/>
<path d="M14388 638 c-4 -11 -3 -330 1 -365 1 -16 34 -33 71 -38 27 -3 30 -1
30 25 0 16 -4 32 -10 35 -6 4 -10 75 -10 181 l0 174 -39 0 c-22 0 -41 -5 -43
-12z"/>
<path d="M14884 460 c1 -211 2 -216 69 -224 35 -4 37 -3 37 24 0 16 -5 30 -12
32 -8 3 -11 55 -12 181 l0 177 -41 0 -41 0 0 -190z"/>
</g>
</svg>
